<svg height="220" version="1.1" width="220" xmlns="http://www.w3.org/2000/svg" xmlns:xlink="http://www.w3.org/1999/xlink">
	<rect fill="white" height="220" id="background" width="220" x="0" y="0"/>
	<g transform="translate(20,20)">
		<g>
			<circle cx="30" cy="30" fill="#ffeecc" r="15" stroke="#ddaa66" stroke-width="2"/>
			<text dy="0.5ex" fill="grey" font-size="10" text-anchor="middle" x="30" y="30">(0,0)</text>
			<circle cx="30" cy="90" fill="#ffeecc" r="15" stroke="#ddaa66" stroke-width="2"/>
			<text dy="0.5ex" fill="grey" font-size="10" text-anchor="middle" x="30" y="90">(0,1)</text>
			<circle cx="30" cy="150" fill="#ffeecc" r="15" stroke="#ddaa66" stroke-width="2"/>
			<text dy="0.5ex" fill="grey" font-size="10" text-anchor="middle" x="30" y="150">(0,2)</text>
			<circle cx="90" cy="30" fill="#ffeecc" r="15" stroke="#ddaa66" stroke-width="2"/>
			<text dy="0.5ex" fill="grey" font-size="10" text-anchor="middle" x="90" y="30">(1,0)</text>
			<circle cx="90" cy="90" fill="#ffeecc" r="15" stroke="#ddaa66" stroke-width="2"/>
			<text dy="0.5ex" fill="grey" font-size="10" text-anchor="middle" x="90" y="90">(1,1)</text>
			<circle cx="90" cy="150" fill="#ffeecc" r="15" stroke="#ddaa66" stroke-width="2"/>
			<text dy="0.5ex" fill="grey" font-size="10" text-anchor="middle" x="90" y="150">(1,2)</text>
			<circle cx="150" cy="30" fill="#ffeecc" r="15" stroke="#ddaa66" stroke-width="2"/>
			<text dy="0.5ex" fill="grey" font-size="10" text-anchor="middle" x="150" y="30">(2,0)</text>
			<circle cx="150" cy="90" fill="#ffeecc" r="15" stroke="#ddaa66" stroke-width="2"/>
			<text dy="0.5ex" fill="grey" font-size="10" text-anchor="middle" x="150" y="90">(2,1)</text>
			<circle cx="150" cy="150" fill="#ffeecc" r="15" stroke="#ddaa66" stroke-width="2"/>
			<text dy="0.5ex" fill="grey" font-size="10" text-anchor="middle" x="150" y="150">(2,2)</text>
		</g>
		<g>
			<path d="m 15,32  l -3,0  c -10,0 -10,26 0,26  l 156,0  c 10,0 10,-26 0,-26  l -3,0  l 2.71892,-1.26785 l -4.44089e-16,2.53571 l -2.71892,-1.26785   l 3,0  c 10,0 10,26 0,26  l -156,-0  c -10,0 -10,-26 0,-26  " stroke="grey" stroke-linecap="round" stroke-linejoin="round" style="fill"/>
			<g transform="translate(45,28) rotate(0)">
				<path d="M 0,0 L 30,0 l -2.71892,1.26785 l -4.44089e-16,-2.53571 l 2.71892,1.26785  " stroke="grey" stroke-linecap="round" stroke-linejoin="round" style="fill"/>
			</g>
			<path d="m 32,15  l 0,-3  c 0,-10 26,-10 26,0  l 0,156  c 0,10 -26,10 -26,0  l 0,-3  l 1.26785,2.71892 l -2.53571,3.45644e-16 l 1.26785,-2.71892   l 0,3  c 0,10 26,10 26,0  l -0,-156  c 0,-10 -26,-10 -26,0  " stroke="grey" stroke-linecap="round" stroke-linejoin="round" style="fill"/>
			<g transform="translate(28,45) rotate(90)">
				<path d="M 0,0 L 30,0 l -2.71892,1.26785 l -4.44089e-16,-2.53571 l 2.71892,1.26785  " stroke="#00e9ff" stroke-linecap="round" stroke-linejoin="round" style="fill"/>
			</g>
			<path d="m 15,92  l -3,0  c -10,0 -10,26 0,26  l 156,0  c 10,0 10,-26 0,-26  l -3,0  l 2.71892,-1.26785 l -4.44089e-16,2.53571 l -2.71892,-1.26785   l 3,0  c 10,0 10,26 0,26  l -156,-0  c -10,0 -10,-26 0,-26  " stroke="grey" stroke-linecap="round" stroke-linejoin="round" style="fill"/>
			<g transform="translate(45,88) rotate(0)">
				<path d="M 0,0 L 30,0 l -2.71892,1.26785 l -4.44089e-16,-2.53571 l 2.71892,1.26785  " stroke="grey" stroke-linecap="round" stroke-linejoin="round" style="fill"/>
			</g>
			<g transform="translate(32,75) rotate(-90)">
				<path d="M 0,0 L 30,0 l -2.71892,1.26785 l -4.44089e-16,-2.53571 l 2.71892,1.26785  " stroke="#d4ff00" stroke-linecap="round" stroke-linejoin="round" style="fill"/>
			</g>
			<g transform="translate(28,105) rotate(90)">
				<path d="M 0,0 L 30,0 l -2.71892,1.26785 l -4.44089e-16,-2.53571 l 2.71892,1.26785  " stroke="grey" stroke-linecap="round" stroke-linejoin="round" style="fill"/>
			</g>
			<path d="m 15,152  l -3,0  c -10,0 -10,26 0,26  l 156,0  c 10,0 10,-26 0,-26  l -3,0  l 2.71892,-1.26785 l -4.44089e-16,2.53571 l -2.71892,-1.26785   l 3,0  c 10,0 10,26 0,26  l -156,-0  c -10,0 -10,-26 0,-26  " stroke="grey" stroke-linecap="round" stroke-linejoin="round" style="fill"/>
			<g transform="translate(45,148) rotate(0)">
				<path d="M 0,0 L 30,0 l -2.71892,1.26785 l -4.44089e-16,-2.53571 l 2.71892,1.26785  " stroke="grey" stroke-linecap="round" stroke-linejoin="round" style="fill"/>
			</g>
			<g transform="translate(32,135) rotate(-90)">
				<path d="M 0,0 L 30,0 l -2.71892,1.26785 l -4.44089e-16,-2.53571 l 2.71892,1.26785  " stroke="grey" stroke-linecap="round" stroke-linejoin="round" style="fill"/>
			</g>
			<path d="m 28,165  l 0,3  c 0,10 -26,10 -26,0  l 0,-156  c 0,-10 26,-10 26,0  l 0,3  l -1.26785,-2.71892 l 2.53571,2.39175e-16 l -1.26785,2.71892   l 0,-3  c 0,-10 -26,-10 -26,0  l -0,156  c 0,10 26,10 26,0  " stroke="#00ff00" stroke-linecap="round" stroke-linejoin="round" style="fill"/>
			<g transform="translate(75,32) rotate(180)">
				<path d="M 0,0 L 30,0 l -2.71892,1.26785 l -4.44089e-16,-2.53571 l 2.71892,1.26785  " stroke="grey" stroke-linecap="round" stroke-linejoin="round" style="fill"/>
			</g>
			<g transform="translate(105,28) rotate(0)">
				<path d="M 0,0 L 30,0 l -2.71892,1.26785 l -4.44089e-16,-2.53571 l 2.71892,1.26785  " stroke="grey" stroke-linecap="round" stroke-linejoin="round" style="fill"/>
			</g>
			<path d="m 92,15  l 0,-3  c 0,-10 26,-10 26,0  l 0,156  c 0,10 -26,10 -26,0  l 0,-3  l 1.26785,2.71892 l -2.53571,3.45644e-16 l 1.26785,-2.71892   l 0,3  c 0,10 26,10 26,0  l -0,-156  c 0,-10 -26,-10 -26,0  " stroke="grey" stroke-linecap="round" stroke-linejoin="round" style="fill"/>
			<g transform="translate(88,45) rotate(90)">
				<path d="M 0,0 L 30,0 l -2.71892,1.26785 l -4.44089e-16,-2.53571 l 2.71892,1.26785  " stroke="#00ff6a" stroke-linecap="round" stroke-linejoin="round" style="fill"/>
			</g>
			<g transform="translate(75,92) rotate(180)">
				<path d="M 0,0 L 30,0 l -2.71892,1.26785 l -4.44089e-16,-2.53571 l 2.71892,1.26785  " stroke="grey" stroke-linecap="round" stroke-linejoin="round" style="fill"/>
			</g>
			<g transform="translate(105,88) rotate(0)">
				<path d="M 0,0 L 30,0 l -2.71892,1.26785 l -4.44089e-16,-2.53571 l 2.71892,1.26785  " stroke="grey" stroke-linecap="round" stroke-linejoin="round" style="fill"/>
			</g>
			<g transform="translate(92,75) rotate(-90)">
				<path d="M 0,0 L 30,0 l -2.71892,1.26785 l -4.44089e-16,-2.53571 l 2.71892,1.26785  " stroke="grey" stroke-linecap="round" stroke-linejoin="round" style="fill"/>
			</g>
			<g transform="translate(88,105) rotate(90)">
				<path d="M 0,0 L 30,0 l -2.71892,1.26785 l -4.44089e-16,-2.53571 l 2.71892,1.26785  " stroke="#ff007f" stroke-linecap="round" stroke-linejoin="round" style="fill"/>
			</g>
			<g transform="translate(75,152) rotate(180)">
				<path d="M 0,0 L 30,0 l -2.71892,1.26785 l -4.44089e-16,-2.53571 l 2.71892,1.26785  " stroke="grey" stroke-linecap="round" stroke-linejoin="round" style="fill"/>
			</g>
			<g transform="translate(105,148) rotate(0)">
				<path d="M 0,0 L 30,0 l -2.71892,1.26785 l -4.44089e-16,-2.53571 l 2.71892,1.26785  " stroke="grey" stroke-linecap="round" stroke-linejoin="round" style="fill"/>
			</g>
			<g transform="translate(92,135) rotate(-90)">
				<path d="M 0,0 L 30,0 l -2.71892,1.26785 l -4.44089e-16,-2.53571 l 2.71892,1.26785  " stroke="#3f00ff" stroke-linecap="round" stroke-linejoin="round" style="fill"/>
			</g>
			<path d="m 88,165  l 0,3  c 0,10 -26,10 -26,0  l 0,-156  c 0,-10 26,-10 26,0  l 0,3  l -1.26785,-2.71892 l 2.53571,2.39175e-16 l -1.26785,2.71892   l 0,-3  c 0,-10 -26,-10 -26,0  l -0,156  c 0,10 26,10 26,0  " stroke="grey" stroke-linecap="round" stroke-linejoin="round" style="fill"/>
			<g transform="translate(135,32) rotate(180)">
				<path d="M 0,0 L 30,0 l -2.71892,1.26785 l -4.44089e-16,-2.53571 l 2.71892,1.26785  " stroke="grey" stroke-linecap="round" stroke-linejoin="round" style="fill"/>
			</g>
			<path d="m 165,28  l 3,0  c 10,0 10,-26 0,-26  l -156,0  c -10,0 -10,26 0,26  l 3,0  l -2.71892,1.26785 l -4.44089e-16,-2.53571 l 2.71892,1.26785   l -3,0  c -10,0 -10,-26 0,-26  l 156,-0  c 10,0 10,26 0,26  " stroke="grey" stroke-linecap="round" stroke-linejoin="round" style="fill"/>
			<path d="m 152,15  l 0,-3  c 0,-10 26,-10 26,0  l 0,156  c 0,10 -26,10 -26,0  l 0,-3  l 1.26785,2.71892 l -2.53571,3.45644e-16 l 1.26785,-2.71892   l 0,3  c 0,10 26,10 26,0  l -0,-156  c 0,-10 -26,-10 -26,0  " stroke="#002aff" stroke-linecap="round" stroke-linejoin="round" style="fill"/>
			<g transform="translate(148,45) rotate(90)">
				<path d="M 0,0 L 30,0 l -2.71892,1.26785 l -4.44089e-16,-2.53571 l 2.71892,1.26785  " stroke="grey" stroke-linecap="round" stroke-linejoin="round" style="fill"/>
			</g>
			<g transform="translate(135,92) rotate(180)">
				<path d="M 0,0 L 30,0 l -2.71892,1.26785 l -4.44089e-16,-2.53571 l 2.71892,1.26785  " stroke="grey" stroke-linecap="round" stroke-linejoin="round" style="fill"/>
			</g>
			<path d="m 165,88  l 3,0  c 10,0 10,-26 0,-26  l -156,0  c -10,0 -10,26 0,26  l 3,0  l -2.71892,1.26785 l -4.44089e-16,-2.53571 l 2.71892,1.26785   l -3,0  c -10,0 -10,-26 0,-26  l 156,-0  c 10,0 10,26 0,26  " stroke="grey" stroke-linecap="round" stroke-linejoin="round" style="fill"/>
			<g transform="translate(152,75) rotate(-90)">
				<path d="M 0,0 L 30,0 l -2.71892,1.26785 l -4.44089e-16,-2.53571 l 2.71892,1.26785  " stroke="grey" stroke-linecap="round" stroke-linejoin="round" style="fill"/>
			</g>
			<g transform="translate(148,105) rotate(90)">
				<path d="M 0,0 L 30,0 l -2.71892,1.26785 l -4.44089e-16,-2.53571 l 2.71892,1.26785  " stroke="#ff1500" stroke-linecap="round" stroke-linejoin="round" style="fill"/>
			</g>
			<g transform="translate(135,152) rotate(180)">
				<path d="M 0,0 L 30,0 l -2.71892,1.26785 l -4.44089e-16,-2.53571 l 2.71892,1.26785  " stroke="grey" stroke-linecap="round" stroke-linejoin="round" style="fill"/>
			</g>
			<path d="m 165,148  l 3,0  c 10,0 10,-26 0,-26  l -156,0  c -10,0 -10,26 0,26  l 3,0  l -2.71892,1.26785 l -4.44089e-16,-2.53571 l 2.71892,1.26785   l -3,0  c -10,0 -10,-26 0,-26  l 156,-0  c 10,0 10,26 0,26  " stroke="grey" stroke-linecap="round" stroke-linejoin="round" style="fill"/>
			<g transform="translate(152,135) rotate(-90)">
				<path d="M 0,0 L 30,0 l -2.71892,1.26785 l -4.44089e-16,-2.53571 l 2.71892,1.26785  " stroke="#d400ff" stroke-linecap="round" stroke-linejoin="round" style="fill"/>
			</g>
			<path d="m 148,165  l 0,3  c 0,10 -26,10 -26,0  l 0,-156  c 0,-10 26,-10 26,0  l 0,3  l -1.26785,-2.71892 l 2.53571,2.39175e-16 l -1.26785,2.71892   l 0,-3  c 0,-10 -26,-10 -26,0  l -0,156  c 0,10 26,10 26,0  " stroke="grey" stroke-linecap="round" stroke-linejoin="round" style="fill"/>
		</g>
	</g>
</svg>
